<mxfile host="app.diagrams.net" agent="Mozilla/5.0 (Windows NT 10.0; Win64; x64) AppleWebKit/537.36 (KHTML, like Gecko) Chrome/134.0.0.0 Safari/537.36" version="26.2.3">
  <diagram id="R2lEEEUBdFMjLlhIrx00" name="Page-1">
    <mxGraphModel dx="3833" dy="1629" grid="1" gridSize="10" guides="1" tooltips="1" connect="1" arrows="1" fold="1" page="1" pageScale="1" pageWidth="850" pageHeight="1100" math="0" shadow="0" extFonts="Permanent Marker^https://fonts.googleapis.com/css?family=Permanent+Marker">
      <root>
        <mxCell id="0" />
        <mxCell id="1" parent="0" />
        <mxCell id="TFdZS5BLXt-s6McbEry0-15" style="rounded=0;orthogonalLoop=1;jettySize=auto;html=1;exitX=0.5;exitY=1;exitDx=0;exitDy=0;entryX=0.5;entryY=0;entryDx=0;entryDy=0;endArrow=none;startFill=0;" edge="1" parent="1" source="TFdZS5BLXt-s6McbEry0-1" target="TFdZS5BLXt-s6McbEry0-10">
          <mxGeometry relative="1" as="geometry" />
        </mxCell>
        <mxCell id="TFdZS5BLXt-s6McbEry0-16" style="rounded=0;orthogonalLoop=1;jettySize=auto;html=1;endArrow=none;startFill=0;" edge="1" parent="1" source="TFdZS5BLXt-s6McbEry0-1" target="TFdZS5BLXt-s6McbEry0-9">
          <mxGeometry relative="1" as="geometry" />
        </mxCell>
        <mxCell id="TFdZS5BLXt-s6McbEry0-17" style="rounded=0;orthogonalLoop=1;jettySize=auto;html=1;entryX=0;entryY=0.5;entryDx=0;entryDy=0;endArrow=none;startFill=0;" edge="1" parent="1" source="TFdZS5BLXt-s6McbEry0-1" target="TFdZS5BLXt-s6McbEry0-12">
          <mxGeometry relative="1" as="geometry" />
        </mxCell>
        <mxCell id="TFdZS5BLXt-s6McbEry0-1" value="Pegawai" style="rounded=0;whiteSpace=wrap;html=1;" vertex="1" parent="1">
          <mxGeometry x="180" y="10" width="120" height="60" as="geometry" />
        </mxCell>
        <mxCell id="TFdZS5BLXt-s6McbEry0-4" value="Kadaluarsa" style="rounded=0;whiteSpace=wrap;html=1;" vertex="1" parent="1">
          <mxGeometry x="670" y="320" width="120" height="60" as="geometry" />
        </mxCell>
        <mxCell id="TFdZS5BLXt-s6McbEry0-5" value="Transaksi" style="rounded=0;whiteSpace=wrap;html=1;" vertex="1" parent="1">
          <mxGeometry x="420" y="655" width="120" height="60" as="geometry" />
        </mxCell>
        <mxCell id="TFdZS5BLXt-s6McbEry0-6" value="Produk" style="rounded=0;whiteSpace=wrap;html=1;" vertex="1" parent="1">
          <mxGeometry x="-180" y="310" width="120" height="60" as="geometry" />
        </mxCell>
        <mxCell id="TFdZS5BLXt-s6McbEry0-8" value="Riwayat_Transaksi" style="rounded=0;whiteSpace=wrap;html=1;" vertex="1" parent="1">
          <mxGeometry x="-130" y="660" width="120" height="60" as="geometry" />
        </mxCell>
        <mxCell id="TFdZS5BLXt-s6McbEry0-9" value="nama_pegawai" style="ellipse;whiteSpace=wrap;html=1;" vertex="1" parent="1">
          <mxGeometry x="250" y="150" width="100" height="70" as="geometry" />
        </mxCell>
        <mxCell id="TFdZS5BLXt-s6McbEry0-10" value="id_pegawai" style="ellipse;whiteSpace=wrap;html=1;" vertex="1" parent="1">
          <mxGeometry x="90" y="140" width="100" height="70" as="geometry" />
        </mxCell>
        <mxCell id="TFdZS5BLXt-s6McbEry0-11" value="Email" style="ellipse;whiteSpace=wrap;html=1;" vertex="1" parent="1">
          <mxGeometry x="395" y="110" width="100" height="70" as="geometry" />
        </mxCell>
        <mxCell id="TFdZS5BLXt-s6McbEry0-12" value="password" style="ellipse;whiteSpace=wrap;html=1;" vertex="1" parent="1">
          <mxGeometry x="420" y="30" width="100" height="70" as="geometry" />
        </mxCell>
        <mxCell id="TFdZS5BLXt-s6McbEry0-13" value="Faktur" style="rounded=0;whiteSpace=wrap;html=1;" vertex="1" parent="1">
          <mxGeometry x="1040" y="60" width="120" height="60" as="geometry" />
        </mxCell>
        <mxCell id="TFdZS5BLXt-s6McbEry0-19" style="rounded=0;orthogonalLoop=1;jettySize=auto;html=1;entryX=0.046;entryY=0.329;entryDx=0;entryDy=0;entryPerimeter=0;endArrow=none;startFill=0;" edge="1" parent="1" source="TFdZS5BLXt-s6McbEry0-1" target="TFdZS5BLXt-s6McbEry0-11">
          <mxGeometry relative="1" as="geometry" />
        </mxCell>
        <mxCell id="TFdZS5BLXt-s6McbEry0-21" value="id_transaksi" style="ellipse;whiteSpace=wrap;html=1;" vertex="1" parent="1">
          <mxGeometry x="840" y="140" width="100" height="70" as="geometry" />
        </mxCell>
        <mxCell id="TFdZS5BLXt-s6McbEry0-22" value="nama_produk" style="ellipse;whiteSpace=wrap;html=1;" vertex="1" parent="1">
          <mxGeometry x="110" y="720" width="100" height="70" as="geometry" />
        </mxCell>
        <mxCell id="TFdZS5BLXt-s6McbEry0-24" value="id_barang" style="ellipse;whiteSpace=wrap;html=1;" vertex="1" parent="1">
          <mxGeometry x="-140" y="465" width="100" height="70" as="geometry" />
        </mxCell>
        <mxCell id="TFdZS5BLXt-s6McbEry0-31" value="diskon" style="ellipse;whiteSpace=wrap;html=1;" vertex="1" parent="1">
          <mxGeometry x="250" y="820" width="100" height="70" as="geometry" />
        </mxCell>
        <mxCell id="TFdZS5BLXt-s6McbEry0-32" value="pajak" style="ellipse;whiteSpace=wrap;html=1;" vertex="1" parent="1">
          <mxGeometry x="160" y="790" width="100" height="70" as="geometry" />
        </mxCell>
        <mxCell id="TFdZS5BLXt-s6McbEry0-33" value="id_transaksi" style="ellipse;whiteSpace=wrap;html=1;" vertex="1" parent="1">
          <mxGeometry x="345" y="840" width="100" height="70" as="geometry" />
        </mxCell>
        <mxCell id="TFdZS5BLXt-s6McbEry0-34" value="Total_bayar" style="ellipse;whiteSpace=wrap;html=1;" vertex="1" parent="1">
          <mxGeometry x="620" y="760" width="100" height="70" as="geometry" />
        </mxCell>
        <mxCell id="TFdZS5BLXt-s6McbEry0-36" value="nama_barang" style="ellipse;whiteSpace=wrap;html=1;" vertex="1" parent="1">
          <mxGeometry x="-250" y="455" width="100" height="70" as="geometry" />
        </mxCell>
        <mxCell id="TFdZS5BLXt-s6McbEry0-37" value="jumlah_masuk" style="ellipse;whiteSpace=wrap;html=1;" vertex="1" parent="1">
          <mxGeometry x="-20" y="465" width="100" height="70" as="geometry" />
        </mxCell>
        <mxCell id="TFdZS5BLXt-s6McbEry0-38" value="Tanggal_masuk" style="ellipse;whiteSpace=wrap;html=1;" vertex="1" parent="1">
          <mxGeometry x="-370" y="418" width="100" height="70" as="geometry" />
        </mxCell>
        <mxCell id="TFdZS5BLXt-s6McbEry0-42" value="kuantitas" style="ellipse;whiteSpace=wrap;html=1;" vertex="1" parent="1">
          <mxGeometry x="440" y="820" width="100" height="70" as="geometry" />
        </mxCell>
        <mxCell id="TFdZS5BLXt-s6McbEry0-43" value="Tanggal_expired" style="ellipse;whiteSpace=wrap;html=1;" vertex="1" parent="1">
          <mxGeometry x="-420" y="340" width="100" height="70" as="geometry" />
        </mxCell>
        <mxCell id="TFdZS5BLXt-s6McbEry0-44" value="desk_produk" style="ellipse;whiteSpace=wrap;html=1;" vertex="1" parent="1">
          <mxGeometry x="40" y="380" width="100" height="70" as="geometry" />
        </mxCell>
        <mxCell id="TFdZS5BLXt-s6McbEry0-45" value="harga" style="ellipse;whiteSpace=wrap;html=1;" vertex="1" parent="1">
          <mxGeometry x="-410" y="240" width="100" height="70" as="geometry" />
        </mxCell>
        <mxCell id="TFdZS5BLXt-s6McbEry0-46" value="stock" style="ellipse;whiteSpace=wrap;html=1;" vertex="1" parent="1">
          <mxGeometry x="-350" y="150" width="100" height="70" as="geometry" />
        </mxCell>
        <mxCell id="TFdZS5BLXt-s6McbEry0-48" value="kuantitas" style="ellipse;whiteSpace=wrap;html=1;" vertex="1" parent="1">
          <mxGeometry x="540" y="790" width="100" height="70" as="geometry" />
        </mxCell>
        <mxCell id="TFdZS5BLXt-s6McbEry0-49" value="harga (FK)" style="ellipse;whiteSpace=wrap;html=1;" vertex="1" parent="1">
          <mxGeometry x="700" y="680" width="100" height="70" as="geometry" />
        </mxCell>
        <mxCell id="TFdZS5BLXt-s6McbEry0-51" value="Pembayaran" style="rounded=0;whiteSpace=wrap;html=1;" vertex="1" parent="1">
          <mxGeometry x="-400" y="650" width="120" height="60" as="geometry" />
        </mxCell>
        <mxCell id="TFdZS5BLXt-s6McbEry0-52" value="id_pembayaran" style="ellipse;whiteSpace=wrap;html=1;" vertex="1" parent="1">
          <mxGeometry x="-541" y="778" width="100" height="70" as="geometry" />
        </mxCell>
        <mxCell id="TFdZS5BLXt-s6McbEry0-53" value="metode_pembayaran" style="ellipse;whiteSpace=wrap;html=1;" vertex="1" parent="1">
          <mxGeometry x="-430" y="778" width="100" height="70" as="geometry" />
        </mxCell>
        <mxCell id="TFdZS5BLXt-s6McbEry0-55" value="id_transaksi" style="ellipse;whiteSpace=wrap;html=1;" vertex="1" parent="1">
          <mxGeometry x="-580" y="700" width="100" height="70" as="geometry" />
        </mxCell>
        <mxCell id="TFdZS5BLXt-s6McbEry0-57" value="nama_bank" style="ellipse;whiteSpace=wrap;html=1;" vertex="1" parent="1">
          <mxGeometry x="-770" y="488" width="100" height="70" as="geometry" />
        </mxCell>
        <mxCell id="TFdZS5BLXt-s6McbEry0-58" value="jumlah_dibayar" style="ellipse;whiteSpace=wrap;html=1;" vertex="1" parent="1">
          <mxGeometry x="-290" y="790" width="100" height="70" as="geometry" />
        </mxCell>
        <mxCell id="TFdZS5BLXt-s6McbEry0-59" value="Tanggal_expired" style="ellipse;whiteSpace=wrap;html=1;" vertex="1" parent="1">
          <mxGeometry x="520" y="450" width="100" height="70" as="geometry" />
        </mxCell>
        <mxCell id="TFdZS5BLXt-s6McbEry0-61" value="no_kadaluarsa" style="ellipse;whiteSpace=wrap;html=1;" vertex="1" parent="1">
          <mxGeometry x="445" y="380" width="100" height="70" as="geometry" />
        </mxCell>
        <mxCell id="TFdZS5BLXt-s6McbEry0-62" value="nama_barang" style="ellipse;whiteSpace=wrap;html=1;" vertex="1" parent="1">
          <mxGeometry x="820" y="430" width="100" height="70" as="geometry" />
        </mxCell>
        <mxCell id="TFdZS5BLXt-s6McbEry0-63" value="Tanggal_masuk" style="ellipse;whiteSpace=wrap;html=1;" vertex="1" parent="1">
          <mxGeometry x="620" y="488" width="100" height="70" as="geometry" />
        </mxCell>
        <mxCell id="TFdZS5BLXt-s6McbEry0-65" value="id_barang" style="ellipse;whiteSpace=wrap;html=1;" vertex="1" parent="1">
          <mxGeometry x="750" y="488" width="100" height="70" as="geometry" />
        </mxCell>
        <mxCell id="TFdZS5BLXt-s6McbEry0-66" value="Bank" style="rounded=0;whiteSpace=wrap;html=1;" vertex="1" parent="1">
          <mxGeometry x="-710" y="410" width="120" height="60" as="geometry" />
        </mxCell>
        <mxCell id="TFdZS5BLXt-s6McbEry0-68" value="diskon" style="ellipse;whiteSpace=wrap;html=1;" vertex="1" parent="1">
          <mxGeometry x="1380" y="170" width="100" height="70" as="geometry" />
        </mxCell>
        <mxCell id="TFdZS5BLXt-s6McbEry0-69" value="pajak" style="ellipse;whiteSpace=wrap;html=1;" vertex="1" parent="1">
          <mxGeometry x="1290" y="230" width="100" height="70" as="geometry" />
        </mxCell>
        <mxCell id="TFdZS5BLXt-s6McbEry0-70" value="&lt;u&gt;id_faktur&lt;/u&gt;" style="ellipse;whiteSpace=wrap;html=1;" vertex="1" parent="1">
          <mxGeometry x="830" y="55" width="100" height="70" as="geometry" />
        </mxCell>
        <mxCell id="TFdZS5BLXt-s6McbEry0-71" value="id_pembayaran" style="ellipse;whiteSpace=wrap;html=1;" vertex="1" parent="1">
          <mxGeometry x="880" y="210" width="100" height="70" as="geometry" />
        </mxCell>
        <mxCell id="TFdZS5BLXt-s6McbEry0-73" value="Status_kadaluarsa" style="ellipse;whiteSpace=wrap;html=1;" vertex="1" parent="1">
          <mxGeometry x="870" y="348" width="100" height="70" as="geometry" />
        </mxCell>
        <mxCell id="TFdZS5BLXt-s6McbEry0-74" value="Subtotal" style="ellipse;whiteSpace=wrap;html=1;" vertex="1" parent="1">
          <mxGeometry x="1160" y="230" width="100" height="70" as="geometry" />
        </mxCell>
      </root>
    </mxGraphModel>
  </diagram>
</mxfile>
